<svg width="1431" height="83" viewBox="0 0 1431 83" fill="none" xmlns="http://www.w3.org/2000/svg">
<path d="M55.739 22.3701V23.9676H57.3364V22.3701H55.739ZM21.4589 22.3701V20.7727H19.8615V22.3701H21.4589ZM21.4589 39.8336H19.8615V41.431H21.4589V39.8336ZM55.0922 39.8336H56.6896V38.2361H55.0922V39.8336ZM55.0922 59.7548V61.3522H56.6896V59.7548H55.0922ZM21.4589 59.7548V58.1574H19.8615V59.7548H21.4589ZM21.4589 93V94.5974H23.0564V93H21.4589ZM0.761524 93H-0.835918V94.5974H0.761524V93ZM0.761524 2.44888V0.851437H-0.835918V2.44888H0.761524ZM55.739 2.44888H57.3364V0.851437H55.739V2.44888ZM55.739 20.7727H21.4589V23.9676H55.739V20.7727ZM19.8615 22.3701V39.8336H23.0564V22.3701H19.8615ZM21.4589 41.431H55.0922V38.2361H21.4589V41.431ZM53.4948 39.8336V59.7548H56.6896V39.8336H53.4948ZM55.0922 58.1574H21.4589V61.3522H55.0922V58.1574ZM19.8615 59.7548V93H23.0564V59.7548H19.8615ZM21.4589 91.4026H0.761524V94.5974H21.4589V91.4026ZM2.35897 93V2.44888H-0.835918V93H2.35897ZM0.761524 4.04632H55.739V0.851437H0.761524V4.04632ZM54.1415 2.44888V22.3701H57.3364V2.44888H54.1415ZM115.571 93L114.186 93.7952L114.646 94.5974H115.571V93ZM98.4961 63.2475L99.8816 62.4523L99.4211 61.65H98.4961V63.2475ZM88.6648 63.2475V61.65H87.0674V63.2475H88.6648ZM88.6648 93V94.5974H90.2623V93H88.6648ZM67.9674 93H66.37V94.5974H67.9674V93ZM67.9674 2.44888V0.851437H66.37V2.44888H67.9674ZM126.179 11.504L127.308 10.3744L126.179 11.504ZM130.577 48.8887L129.24 48.0138L129.237 48.0198L130.577 48.8887ZM118.547 59.7548L117.813 58.3359L116.324 59.106L117.165 60.556L118.547 59.7548ZM137.821 93V94.5974H140.594L139.203 92.1988L137.821 93ZM88.6648 21.8527V20.2553H87.0674V21.8527H88.6648ZM88.6648 45.1373H87.0674V46.7347H88.6648V45.1373ZM111.432 41.7739L110.258 40.6904L110.247 40.7029L110.235 40.7155L111.432 41.7739ZM111.432 25.216L110.235 26.2744L110.247 26.2871L110.258 26.2995L111.432 25.216ZM116.957 92.2048L99.8816 62.4523L97.1106 64.0426L114.186 93.7952L116.957 92.2048ZM98.4961 61.65H88.6648V64.8449H98.4961V61.65ZM87.0674 63.2475V93H90.2623V63.2475H87.0674ZM88.6648 91.4026H67.9674V94.5974H88.6648V91.4026ZM69.5649 93V2.44888H66.37V93H69.5649ZM67.9674 4.04632H104.188V0.851437H67.9674V4.04632ZM104.188 4.04632C112.393 4.04632 119.316 6.89979 125.049 12.6336L127.308 10.3744C120.969 4.03471 113.231 0.851437 104.188 0.851437V4.04632ZM125.049 12.6336C130.783 18.3673 133.637 25.2899 133.637 33.495H136.831C136.831 24.4522 133.648 16.7142 127.308 10.3744L125.049 12.6336ZM133.637 33.495C133.637 38.6947 132.18 43.5232 129.24 48.0138L131.914 49.7635C135.184 44.7678 136.831 39.3339 136.831 33.495H133.637ZM129.237 48.0198C126.371 52.4402 122.572 55.8743 117.813 58.3359L119.281 61.1737C124.525 58.461 128.746 54.6509 131.918 49.7575L129.237 48.0198ZM117.165 60.556L136.439 93.8012L139.203 92.1988L119.929 58.9536L117.165 60.556ZM137.821 91.4026H115.571V94.5974H137.821V91.4026ZM87.0674 21.8527V45.1373H90.2623V21.8527H87.0674ZM88.6648 46.7347H104.188V43.5398H88.6648V46.7347ZM104.188 46.7347C107.518 46.7347 110.36 45.3971 112.628 42.8324L110.235 40.7155C108.537 42.6352 106.55 43.5398 104.188 43.5398V46.7347ZM112.606 42.8575C114.969 40.2971 116.134 37.1412 116.134 33.495H112.939C112.939 36.4029 112.034 38.7663 110.258 40.6904L112.606 42.8575ZM116.134 33.495C116.134 29.8488 114.969 26.6928 112.606 24.1325L110.258 26.2995C112.034 28.2237 112.939 30.587 112.939 33.495H116.134ZM112.628 24.1576C110.36 21.5928 107.518 20.2553 104.188 20.2553V23.4501C106.55 23.4501 108.537 24.3548 110.235 26.2744L112.628 24.1576ZM104.188 20.2553H88.6648V23.4501H104.188V20.2553ZM222.87 81.2284L221.746 80.0935L222.87 81.2284ZM156.121 81.2284L157.246 80.0935L156.121 81.2284ZM170.61 67.1283L169.48 68.2579L169.49 68.2674L170.61 67.1283ZM208.253 67.1283L207.133 65.989L207.123 65.9987L208.253 67.1283ZM208.253 28.3206L207.123 29.4502L207.133 29.4598L208.253 28.3206ZM170.61 28.3206L169.49 27.1814L169.48 27.1911L170.61 28.3206ZM221.746 80.0935C212.91 88.8461 202.192 93.2136 189.496 93.2136V96.4085C203.016 96.4085 214.548 91.7208 223.995 82.3633L221.746 80.0935ZM189.496 93.2136C176.8 93.2136 166.082 88.8461 157.246 80.0935L154.997 82.3633C164.444 91.7208 175.975 96.4085 189.496 96.4085V93.2136ZM157.246 80.0935C148.418 71.349 144.007 60.5943 144.007 47.7244H140.812C140.812 61.4162 145.542 72.9975 154.997 82.3633L157.246 80.0935ZM144.007 47.7244C144.007 34.8546 148.418 24.0999 157.246 15.3554L154.997 13.0856C145.542 22.4514 140.812 34.0327 140.812 47.7244H144.007ZM157.246 15.3554C166.082 6.60279 176.8 2.2353 189.496 2.2353V-0.959585C175.975 -0.959585 164.444 3.72803 154.997 13.0856L157.246 15.3554ZM189.496 2.2353C202.192 2.2353 212.91 6.60279 221.746 15.3554L223.995 13.0856C214.548 3.72803 203.016 -0.959585 189.496 -0.959585V2.2353ZM221.746 15.3554C230.574 24.0999 234.985 34.8546 234.985 47.7244H238.18C238.18 34.0327 233.45 22.4514 223.995 13.0856L221.746 15.3554ZM234.985 47.7244C234.985 60.5943 230.574 71.349 221.746 80.0935L223.995 82.3633C233.45 72.9975 238.18 61.4162 238.18 47.7244H234.985ZM169.49 68.2674C174.893 73.5794 181.598 76.2285 189.496 76.2285V73.0336C182.388 73.0336 176.502 70.6809 171.729 65.9891L169.49 68.2674ZM189.496 76.2285C197.394 76.2285 204.061 73.5788 209.382 68.2578L207.123 65.9987C202.441 70.6814 196.604 73.0336 189.496 73.0336V76.2285ZM209.373 68.2674C214.802 62.9302 217.483 56.0342 217.483 47.7244H214.288C214.288 55.2827 211.88 61.3226 207.133 65.9891L209.373 68.2674ZM217.483 47.7244C217.483 39.4147 214.802 32.5187 209.373 27.1815L207.133 29.4598C211.88 34.1263 214.288 40.1662 214.288 47.7244H217.483ZM209.382 27.1911C204.061 21.87 197.394 19.2204 189.496 19.2204V22.4153C196.604 22.4153 202.441 24.7675 207.123 29.4502L209.382 27.1911ZM189.496 19.2204C181.598 19.2204 174.893 21.8695 169.49 27.1815L171.729 29.4598C176.502 24.768 182.388 22.4153 189.496 22.4153V19.2204ZM169.48 27.1911C164.141 32.5301 161.509 39.4231 161.509 47.7244H164.704C164.704 40.1578 167.074 34.1149 171.739 29.4502L169.48 27.1911ZM161.509 47.7244C161.509 56.0258 164.141 62.9188 169.48 68.2578L171.739 65.9987C167.074 61.334 164.704 55.2911 164.704 47.7244H161.509ZM298.686 2.44888V0.851437H297.088V2.44888H298.686ZM319.383 2.44888H320.981V0.851437H319.383V2.44888ZM319.383 93V94.5974H320.981V93H319.383ZM303.86 93L302.558 93.9252L303.036 94.5974H303.86V93ZM268.933 43.8437L270.236 42.9184L267.336 38.8374V43.8437H268.933ZM268.933 93V94.5974H270.531V93H268.933ZM248.236 93H246.638V94.5974H248.236V93ZM248.236 2.44888V0.851437H246.638V2.44888H248.236ZM263.759 2.44888L265.061 1.52363L264.584 0.851437H263.759V2.44888ZM298.686 51.6052L297.384 52.5304L300.283 56.6114V51.6052H298.686ZM298.686 4.04632H319.383V0.851437H298.686V4.04632ZM317.786 2.44888V93H320.981V2.44888H317.786ZM319.383 91.4026H303.86V94.5974H319.383V91.4026ZM305.162 92.0748L270.236 42.9184L267.631 44.7689L302.558 93.9252L305.162 92.0748ZM267.336 43.8437V93H270.531V43.8437H267.336ZM268.933 91.4026H248.236V94.5974H268.933V91.4026ZM249.833 93V2.44888H246.638V93H249.833ZM248.236 4.04632H263.759V0.851437H248.236V4.04632ZM262.457 3.37413L297.384 52.5304L299.988 50.68L265.061 1.52363L262.457 3.37413ZM300.283 51.6052V2.44888H297.088V51.6052H300.283ZM395.695 2.44888H397.292V0.851437H395.695V2.44888ZM395.695 22.3701V23.9676H397.292V22.3701H395.695ZM372.41 22.3701V20.7727H370.813V22.3701H372.41ZM372.41 93V94.5974H374.008V93H372.41ZM351.713 93H350.115V94.5974H351.713V93ZM351.713 22.3701H353.31V20.7727H351.713V22.3701ZM328.428 22.3701H326.831V23.9676H328.428V22.3701ZM328.428 2.44888V0.851437H326.831V2.44888H328.428ZM394.097 2.44888V22.3701H397.292V2.44888H394.097ZM395.695 20.7727H372.41V23.9676H395.695V20.7727ZM370.813 22.3701V93H374.008V22.3701H370.813ZM372.41 91.4026H351.713V94.5974H372.41V91.4026ZM353.31 93V22.3701H350.115V93H353.31ZM351.713 20.7727H328.428V23.9676H351.713V20.7727ZM330.026 22.3701V2.44888H326.831V22.3701H330.026ZM328.428 4.04632H395.695V0.851437H328.428V4.04632ZM398.312 63.6356H396.715V65.233H398.312V63.6356ZM398.312 45.0079V43.4105H396.715V45.0079H398.312ZM447.469 45.0079H449.066V43.4105H447.469V45.0079ZM447.469 63.6356V65.233H449.066V63.6356H447.469ZM399.91 63.6356V45.0079H396.715V63.6356H399.91ZM398.312 46.6053H447.469V43.4105H398.312V46.6053ZM445.871 45.0079V63.6356H449.066V45.0079H445.871ZM447.469 62.0381H398.312V65.233H447.469V62.0381ZM483.689 73.0788H482.092V74.6762H483.689V73.0788ZM519.909 73.0788H521.507V71.4813H519.909V73.0788ZM519.909 93V94.5974H521.507V93H519.909ZM462.992 93H461.394V94.5974H462.992V93ZM462.992 2.44888V0.851437H461.394V2.44888H462.992ZM519.263 2.44888H520.86V0.851437H519.263V2.44888ZM519.263 22.3701V23.9676H520.86V22.3701H519.263ZM483.689 22.3701V20.7727H482.092V22.3701H483.689ZM483.689 37.3757H482.092V38.9732H483.689V37.3757ZM516.029 37.3757H517.626V35.7783H516.029V37.3757ZM516.029 57.0383V58.6357H517.626V57.0383H516.029ZM483.689 57.0383V55.4408H482.092V57.0383H483.689ZM483.689 74.6762H519.909V71.4813H483.689V74.6762ZM518.312 73.0788V93H521.507V73.0788H518.312ZM519.909 91.4026H462.992V94.5974H519.909V91.4026ZM464.589 93V2.44888H461.394V93H464.589ZM462.992 4.04632H519.263V0.851437H462.992V4.04632ZM517.665 2.44888V22.3701H520.86V2.44888H517.665ZM519.263 20.7727H483.689V23.9676H519.263V20.7727ZM482.092 22.3701V37.3757H485.286V22.3701H482.092ZM483.689 38.9732H516.029V35.7783H483.689V38.9732ZM514.431 37.3757V57.0383H517.626V37.3757H514.431ZM516.029 55.4408H483.689V58.6357H516.029V55.4408ZM482.092 57.0383V73.0788H485.286V57.0383H482.092ZM582.037 2.44888V0.851437H580.44V2.44888H582.037ZM602.734 2.44888H604.332V0.851437H602.734V2.44888ZM602.734 93V94.5974H604.332V93H602.734ZM587.211 93L585.909 93.9252L586.387 94.5974H587.211V93ZM552.284 43.8437L553.587 42.9184L550.687 38.8374V43.8437H552.284ZM552.284 93V94.5974H553.882V93H552.284ZM531.587 93H529.99V94.5974H531.587V93ZM531.587 2.44888V0.851437H529.99V2.44888H531.587ZM547.11 2.44888L548.412 1.52363L547.935 0.851437H547.11V2.44888ZM582.037 51.6052L580.735 52.5304L583.634 56.6114V51.6052H582.037ZM582.037 4.04632H602.734V0.851437H582.037V4.04632ZM601.137 2.44888V93H604.332V2.44888H601.137ZM602.734 91.4026H587.211V94.5974H602.734V91.4026ZM588.514 92.0748L553.587 42.9184L550.982 44.7689L585.909 93.9252L588.514 92.0748ZM550.687 43.8437V93H553.882V43.8437H550.687ZM552.284 91.4026H531.587V94.5974H552.284V91.4026ZM533.185 93V2.44888H529.99V93H533.185ZM531.587 4.04632H547.11V0.851437H531.587V4.04632ZM545.808 3.37413L580.735 52.5304L583.339 50.68L548.412 1.52363L545.808 3.37413ZM583.634 51.6052V2.44888H580.44V51.6052H583.634ZM685.773 15.5141L684.62 16.6206L684.626 16.6264L684.632 16.6322L685.773 15.5141ZM685.773 80.0641L684.626 78.9517L684.626 78.9519L685.773 80.0641ZM618.247 93H616.65V94.5974H618.247V93ZM618.247 2.44888V0.851437H616.65V2.44888H618.247ZM671.802 66.2227L670.651 65.1147L670.651 65.1151L671.802 66.2227ZM671.802 29.3555L670.641 30.4523L670.651 30.4634L670.662 30.4743L671.802 29.3555ZM638.945 22.3701V20.7727H637.347V22.3701H638.945ZM638.945 73.0788H637.347V74.6762H638.945V73.0788ZM654.468 4.04632C666.555 4.04632 676.568 8.2364 684.62 16.6206L686.925 14.4076C678.247 5.37152 667.39 0.851437 654.468 0.851437V4.04632ZM684.632 16.6322C692.77 24.937 696.852 35.2632 696.852 47.7244H700.047C700.047 34.4864 695.678 23.3391 686.914 14.396L684.632 16.6322ZM696.852 47.7244C696.852 60.1857 692.77 70.5585 684.626 78.9517L686.919 81.1765C695.678 72.1495 700.047 60.9624 700.047 47.7244H696.852ZM684.626 78.9519C676.575 87.2517 666.56 91.4026 654.468 91.4026V94.5974C667.385 94.5974 678.24 90.1243 686.919 81.1764L684.626 78.9519ZM654.468 91.4026H618.247V94.5974H654.468V91.4026ZM619.845 93V2.44888H616.65V93H619.845ZM618.247 4.04632H654.468V0.851437H618.247V4.04632ZM654.468 74.6762C661.999 74.6762 668.214 72.2555 672.953 67.3304L670.651 65.1151C666.594 69.3313 661.253 71.4813 654.468 71.4813V74.6762ZM672.953 67.3308C677.776 62.3216 680.126 55.7304 680.126 47.7244H676.931C676.931 55.0691 674.796 60.81 670.651 65.1147L672.953 67.3308ZM680.126 47.7244C680.126 39.7195 677.776 33.1639 672.942 28.2367L670.662 30.4743C674.796 34.6884 676.931 40.3788 676.931 47.7244H680.126ZM672.963 28.2587C668.226 23.243 662.008 20.7727 654.468 20.7727V23.9676C661.243 23.9676 666.581 26.1541 670.641 30.4523L672.963 28.2587ZM654.468 20.7727H638.945V23.9676H654.468V20.7727ZM637.347 22.3701V73.0788H640.542V22.3701H637.347ZM638.945 74.6762H654.468V71.4813H638.945V74.6762ZM809.952 15.5141L808.8 16.6206L808.805 16.6264L808.811 16.6322L809.952 15.5141ZM809.952 80.0641L808.805 78.9517L808.805 78.9519L809.952 80.0641ZM742.427 93H740.829V94.5974H742.427V93ZM742.427 2.44888V0.851437H740.829V2.44888H742.427ZM795.981 66.2227L794.831 65.1147L794.83 65.1151L795.981 66.2227ZM795.981 29.3555L794.82 30.4523L794.83 30.4634L794.841 30.4743L795.981 29.3555ZM763.124 22.3701V20.7727H761.527V22.3701H763.124ZM763.124 73.0788H761.527V74.6762H763.124V73.0788ZM778.647 4.04632C790.734 4.04632 800.748 8.2364 808.8 16.6206L811.104 14.4076C802.426 5.37152 791.569 0.851437 778.647 0.851437V4.04632ZM808.811 16.6322C816.95 24.937 821.032 35.2632 821.032 47.7244H824.227C824.227 34.4864 819.857 23.3391 811.093 14.396L808.811 16.6322ZM821.032 47.7244C821.032 60.1857 816.949 70.5585 808.805 78.9517L811.098 81.1765C819.857 72.1495 824.227 60.9624 824.227 47.7244H821.032ZM808.805 78.9519C800.754 87.2517 790.739 91.4026 778.647 91.4026V94.5974C791.564 94.5974 802.419 90.1243 811.099 81.1764L808.805 78.9519ZM778.647 91.4026H742.427V94.5974H778.647V91.4026ZM744.024 93V2.44888H740.829V93H744.024ZM742.427 4.04632H778.647V0.851437H742.427V4.04632ZM778.647 74.6762C786.178 74.6762 792.393 72.2555 797.132 67.3304L794.83 65.1151C790.773 69.3313 785.432 71.4813 778.647 71.4813V74.6762ZM797.132 67.3308C801.956 62.3216 804.305 55.7304 804.305 47.7244H801.11C801.11 55.0691 798.976 60.81 794.831 65.1147L797.132 67.3308ZM804.305 47.7244C804.305 39.7195 801.956 33.1639 797.121 28.2367L794.841 30.4743C798.976 34.6884 801.11 40.3788 801.11 47.7244H804.305ZM797.143 28.2587C792.406 23.243 786.188 20.7727 778.647 20.7727V23.9676C785.422 23.9676 790.76 26.1541 794.82 30.4523L797.143 28.2587ZM778.647 20.7727H763.124V23.9676H778.647V20.7727ZM761.527 22.3701V73.0788H764.721V22.3701H761.527ZM763.124 74.6762H778.647V71.4813H763.124V74.6762ZM854.964 73.0788H853.366V74.6762H854.964V73.0788ZM891.184 73.0788H892.782V71.4813H891.184V73.0788ZM891.184 93V94.5974H892.782V93H891.184ZM834.266 93H832.669V94.5974H834.266V93ZM834.266 2.44888V0.851437H832.669V2.44888H834.266ZM890.537 2.44888H892.135V0.851437H890.537V2.44888ZM890.537 22.3701V23.9676H892.135V22.3701H890.537ZM854.964 22.3701V20.7727H853.366V22.3701H854.964ZM854.964 37.3757H853.366V38.9732H854.964V37.3757ZM887.303 37.3757H888.901V35.7783H887.303V37.3757ZM887.303 57.0383V58.6357H888.901V57.0383H887.303ZM854.964 57.0383V55.4408H853.366V57.0383H854.964ZM854.964 74.6762H891.184V71.4813H854.964V74.6762ZM889.587 73.0788V93H892.782V73.0788H889.587ZM891.184 91.4026H834.266V94.5974H891.184V91.4026ZM835.864 93V2.44888H832.669V93H835.864ZM834.266 4.04632H890.537V0.851437H834.266V4.04632ZM888.94 2.44888V22.3701H892.135V2.44888H888.94ZM890.537 20.7727H854.964V23.9676H890.537V20.7727ZM853.366 22.3701V37.3757H856.561V22.3701H853.366ZM854.964 38.9732H887.303V35.7783H854.964V38.9732ZM885.706 37.3757V57.0383H888.901V37.3757H885.706ZM887.303 55.4408H854.964V58.6357H887.303V55.4408ZM853.366 57.0383V73.0788H856.561V57.0383H853.366ZM924.594 93L923.075 93.4947L923.434 94.5974H924.594V93ZM895.1 2.44888V0.851437H892.9L893.581 2.94361L895.1 2.44888ZM917.738 2.44888L919.268 1.9885L918.925 0.851437H917.738V2.44888ZM937.789 69.0686L936.259 69.529L937.789 74.6115L939.318 69.529L937.789 69.0686ZM957.839 2.44888V0.851437H956.652L956.31 1.9885L957.839 2.44888ZM980.477 2.44888L981.996 2.94361L982.677 0.851437H980.477V2.44888ZM950.983 93V94.5974H952.143L952.502 93.4947L950.983 93ZM926.113 92.5053L896.619 1.95415L893.581 2.94361L923.075 93.4947L926.113 92.5053ZM895.1 4.04632H917.738V0.851437H895.1V4.04632ZM916.208 2.90926L936.259 69.529L939.318 68.6083L919.268 1.9885L916.208 2.90926ZM939.318 69.529L959.369 2.90926L956.31 1.9885L936.259 68.6083L939.318 69.529ZM957.839 4.04632H980.477V0.851437H957.839V4.04632ZM978.958 1.95415L949.464 92.5053L952.502 93.4947L981.996 2.94361L978.958 1.95415ZM950.983 91.4026H924.594V94.5974H950.983V91.4026ZM1008.96 73.0788H1007.36V74.6762H1008.96V73.0788ZM1045.18 73.0788H1046.77V71.4813H1045.18V73.0788ZM1045.18 93V94.5974H1046.77V93H1045.18ZM988.259 93H986.661V94.5974H988.259V93ZM988.259 2.44888V0.851437H986.661V2.44888H988.259ZM1044.53 2.44888H1046.13V0.851437H1044.53V2.44888ZM1044.53 22.3701V23.9676H1046.13V22.3701H1044.53ZM1008.96 22.3701V20.7727H1007.36V22.3701H1008.96ZM1008.96 37.3757H1007.36V38.9732H1008.96V37.3757ZM1041.3 37.3757H1042.89V35.7783H1041.3V37.3757ZM1041.3 57.0383V58.6357H1042.89V57.0383H1041.3ZM1008.96 57.0383V55.4408H1007.36V57.0383H1008.96ZM1008.96 74.6762H1045.18V71.4813H1008.96V74.6762ZM1043.58 73.0788V93H1046.77V73.0788H1043.58ZM1045.18 91.4026H988.259V94.5974H1045.18V91.4026ZM989.856 93V2.44888H986.661V93H989.856ZM988.259 4.04632H1044.53V0.851437H988.259V4.04632ZM1042.93 2.44888V22.3701H1046.13V2.44888H1042.93ZM1044.53 20.7727H1008.96V23.9676H1044.53V20.7727ZM1007.36 22.3701V37.3757H1010.55V22.3701H1007.36ZM1008.96 38.9732H1041.3V35.7783H1008.96V38.9732ZM1039.7 37.3757V57.0383H1042.89V37.3757H1039.7ZM1041.3 55.4408H1008.96V58.6357H1041.3V55.4408ZM1007.36 57.0383V73.0788H1010.55V57.0383H1007.36ZM1077.55 73.0788H1075.95V74.6762H1077.55V73.0788ZM1109.89 73.0788H1111.49V71.4813H1109.89V73.0788ZM1109.89 93V94.5974H1111.49V93H1109.89ZM1056.85 93H1055.26V94.5974H1056.85V93ZM1056.85 2.44888V0.851437H1055.26V2.44888H1056.85ZM1077.55 2.44888H1079.15V0.851437H1077.55V2.44888ZM1077.55 74.6762H1109.89V71.4813H1077.55V74.6762ZM1108.29 73.0788V93H1111.49V73.0788H1108.29ZM1109.89 91.4026H1056.85V94.5974H1109.89V91.4026ZM1058.45 93V2.44888H1055.26V93H1058.45ZM1056.85 4.04632H1077.55V0.851437H1056.85V4.04632ZM1075.95 2.44888V73.0788H1079.15V2.44888H1075.95ZM1190.41 81.2284L1189.28 80.0935L1190.41 81.2284ZM1123.66 81.2284L1124.78 80.0935L1123.66 81.2284ZM1138.15 67.1283L1137.02 68.2579L1137.03 68.2674L1138.15 67.1283ZM1175.79 67.1283L1174.67 65.989L1174.66 65.9987L1175.79 67.1283ZM1175.79 28.3206L1174.66 29.4502L1174.67 29.4598L1175.79 28.3206ZM1138.15 28.3206L1137.03 27.1814L1137.02 27.1911L1138.15 28.3206ZM1189.28 80.0935C1180.45 88.8461 1169.73 93.2136 1157.03 93.2136V96.4085C1170.55 96.4085 1182.09 91.7208 1191.53 82.3633L1189.28 80.0935ZM1157.03 93.2136C1144.34 93.2136 1133.62 88.8461 1124.78 80.0935L1122.53 82.3633C1131.98 91.7208 1143.51 96.4085 1157.03 96.4085V93.2136ZM1124.78 80.0935C1115.96 71.349 1111.54 60.5943 1111.54 47.7244H1108.35C1108.35 61.4162 1113.08 72.9975 1122.53 82.3633L1124.78 80.0935ZM1111.54 47.7244C1111.54 34.8546 1115.96 24.0999 1124.78 15.3554L1122.53 13.0856C1113.08 22.4514 1108.35 34.0327 1108.35 47.7244H1111.54ZM1124.78 15.3554C1133.62 6.60279 1144.34 2.2353 1157.03 2.2353V-0.959585C1143.51 -0.959585 1131.98 3.72803 1122.53 13.0856L1124.78 15.3554ZM1157.03 2.2353C1169.73 2.2353 1180.45 6.60279 1189.28 15.3554L1191.53 13.0856C1182.09 3.72803 1170.55 -0.959585 1157.03 -0.959585V2.2353ZM1189.28 15.3554C1198.11 24.0999 1202.52 34.8546 1202.52 47.7244H1205.72C1205.72 34.0327 1200.99 22.4514 1191.53 13.0856L1189.28 15.3554ZM1202.52 47.7244C1202.52 60.5943 1198.11 71.349 1189.28 80.0935L1191.53 82.3633C1200.99 72.9975 1205.72 61.4162 1205.72 47.7244H1202.52ZM1137.03 68.2674C1142.43 73.5794 1149.14 76.2285 1157.03 76.2285V73.0336C1149.93 73.0336 1144.04 70.6809 1139.27 65.9891L1137.03 68.2674ZM1157.03 76.2285C1164.93 76.2285 1171.6 73.5788 1176.92 68.2578L1174.66 65.9987C1169.98 70.6814 1164.14 73.0336 1157.03 73.0336V76.2285ZM1176.91 68.2674C1182.34 62.9302 1185.02 56.0342 1185.02 47.7244H1181.83C1181.83 55.2827 1179.42 61.3226 1174.67 65.9891L1176.91 68.2674ZM1185.02 47.7244C1185.02 39.4147 1182.34 32.5187 1176.91 27.1815L1174.67 29.4598C1179.42 34.1263 1181.83 40.1662 1181.83 47.7244H1185.02ZM1176.92 27.1911C1171.6 21.87 1164.93 19.2204 1157.03 19.2204V22.4153C1164.14 22.4153 1169.98 24.7675 1174.66 29.4502L1176.92 27.1911ZM1157.03 19.2204C1149.14 19.2204 1142.43 21.8695 1137.03 27.1815L1139.27 29.4598C1144.04 24.768 1149.93 22.4153 1157.03 22.4153V19.2204ZM1137.02 27.1911C1131.68 32.5301 1129.05 39.4231 1129.05 47.7244H1132.24C1132.24 40.1578 1134.61 34.1149 1139.28 29.4502L1137.02 27.1911ZM1129.05 47.7244C1129.05 56.0258 1131.68 62.9188 1137.02 68.2578L1139.28 65.9987C1134.61 61.334 1132.24 55.2911 1132.24 47.7244H1129.05ZM1272.56 11.504L1273.68 10.3664L1272.56 11.504ZM1272.56 55.486L1271.44 54.3484L1272.56 55.486ZM1236.47 64.5411V62.9436H1234.87V64.5411H1236.47ZM1236.47 93V94.5974H1238.07V93H1236.47ZM1215.77 93H1214.18V94.5974H1215.77V93ZM1215.77 2.44888V0.851437H1214.18V2.44888H1215.77ZM1257.94 41.7739L1256.77 40.6904L1257.94 41.7739ZM1257.94 25.216L1259.12 24.1325L1257.94 25.216ZM1236.47 21.8527V20.2553H1234.87V21.8527H1236.47ZM1236.47 45.1373H1234.87V46.7347H1236.47V45.1373ZM1250.05 4.04632C1258.53 4.04632 1265.63 6.91017 1271.44 12.6415L1273.68 10.3664C1267.25 4.02433 1259.34 0.851437 1250.05 0.851437V4.04632ZM1271.44 12.6415C1277.26 18.3771 1280.15 25.2972 1280.15 33.495H1283.34C1283.34 24.4449 1280.11 16.7044 1273.68 10.3664L1271.44 12.6415ZM1280.15 33.495C1280.15 41.6927 1277.26 48.6129 1271.44 54.3484L1273.68 56.6235C1280.11 50.2856 1283.34 42.5451 1283.34 33.495H1280.15ZM1271.44 54.3484C1265.63 60.0798 1258.53 62.9436 1250.05 62.9436V66.1385C1259.34 66.1385 1267.25 62.9656 1273.68 56.6235L1271.44 54.3484ZM1250.05 62.9436H1236.47V66.1385H1250.05V62.9436ZM1234.87 64.5411V93H1238.07V64.5411H1234.87ZM1236.47 91.4026H1215.77V94.5974H1236.47V91.4026ZM1217.37 93V2.44888H1214.18V93H1217.37ZM1215.77 4.04632H1250.05V0.851437H1215.77V4.04632ZM1250.05 46.7347C1253.67 46.7347 1256.73 45.4438 1259.12 42.8575L1256.77 40.6904C1255.02 42.5885 1252.82 43.5398 1250.05 43.5398V46.7347ZM1259.12 42.8575C1261.48 40.2971 1262.65 37.1412 1262.65 33.495H1259.45C1259.45 36.4029 1258.55 38.7663 1256.77 40.6904L1259.12 42.8575ZM1262.65 33.495C1262.65 29.8488 1261.48 26.6928 1259.12 24.1325L1256.77 26.2995C1258.55 28.2237 1259.45 30.587 1259.45 33.495H1262.65ZM1259.12 24.1325C1256.73 21.5462 1253.67 20.2553 1250.05 20.2553V23.4501C1252.82 23.4501 1255.02 24.4014 1256.77 26.2995L1259.12 24.1325ZM1250.05 20.2553H1236.47V23.4501H1250.05V20.2553ZM1234.87 21.8527V45.1373H1238.07V21.8527H1234.87ZM1236.47 46.7347H1250.05V43.5398H1236.47V46.7347ZM1312.77 73.0788H1311.17V74.6762H1312.77V73.0788ZM1348.99 73.0788H1350.59V71.4813H1348.99V73.0788ZM1348.99 93V94.5974H1350.59V93H1348.99ZM1292.07 93H1290.48V94.5974H1292.07V93ZM1292.07 2.44888V0.851437H1290.48V2.44888H1292.07ZM1348.35 2.44888H1349.94V0.851437H1348.35V2.44888ZM1348.35 22.3701V23.9676H1349.94V22.3701H1348.35ZM1312.77 22.3701V20.7727H1311.17V22.3701H1312.77ZM1312.77 37.3757H1311.17V38.9732H1312.77V37.3757ZM1345.11 37.3757H1346.71V35.7783H1345.11V37.3757ZM1345.11 57.0383V58.6357H1346.71V57.0383H1345.11ZM1312.77 57.0383V55.4408H1311.17V57.0383H1312.77ZM1312.77 74.6762H1348.99V71.4813H1312.77V74.6762ZM1347.4 73.0788V93H1350.59V73.0788H1347.4ZM1348.99 91.4026H1292.07V94.5974H1348.99V91.4026ZM1293.67 93V2.44888H1290.48V93H1293.67ZM1292.07 4.04632H1348.35V0.851437H1292.07V4.04632ZM1346.75 2.44888V22.3701H1349.94V2.44888H1346.75ZM1348.35 20.7727H1312.77V23.9676H1348.35V20.7727ZM1311.17 22.3701V37.3757H1314.37V22.3701H1311.17ZM1312.77 38.9732H1345.11V35.7783H1312.77V38.9732ZM1343.51 37.3757V57.0383H1346.71V37.3757H1343.51ZM1345.11 55.4408H1312.77V58.6357H1345.11V55.4408ZM1311.17 57.0383V73.0788H1314.37V57.0383H1311.17ZM1408.27 93L1406.89 93.7952L1407.35 94.5974H1408.27V93ZM1391.2 63.2475L1392.58 62.4523L1392.12 61.65H1391.2V63.2475ZM1381.37 63.2475V61.65H1379.77V63.2475H1381.37ZM1381.37 93V94.5974H1382.97V93H1381.37ZM1360.67 93H1359.07V94.5974H1360.67V93ZM1360.67 2.44888V0.851437H1359.07V2.44888H1360.67ZM1418.88 11.504L1420.01 10.3744L1418.88 11.504ZM1423.28 48.8887L1421.94 48.0138L1421.94 48.0198L1423.28 48.8887ZM1411.25 59.7548L1410.52 58.3359L1409.03 59.106L1409.87 60.556L1411.25 59.7548ZM1430.52 93V94.5974H1433.3L1431.91 92.1988L1430.52 93ZM1381.37 21.8527V20.2553H1379.77V21.8527H1381.37ZM1381.37 45.1373H1379.77V46.7347H1381.37V45.1373ZM1404.14 41.7739L1402.96 40.6904L1402.95 40.7029L1402.94 40.7155L1404.14 41.7739ZM1404.14 25.216L1402.94 26.2744L1402.95 26.2871L1402.96 26.2995L1404.14 25.216ZM1409.66 92.2048L1392.58 62.4523L1389.81 64.0426L1406.89 93.7952L1409.66 92.2048ZM1391.2 61.65H1381.37V64.8449H1391.2V61.65ZM1379.77 63.2475V93H1382.97V63.2475H1379.77ZM1381.37 91.4026H1360.67V94.5974H1381.37V91.4026ZM1362.27 93V2.44888H1359.07V93H1362.27ZM1360.67 4.04632H1396.89V0.851437H1360.67V4.04632ZM1396.89 4.04632C1405.1 4.04632 1412.02 6.89979 1417.75 12.6336L1420.01 10.3744C1413.67 4.03471 1405.93 0.851437 1396.89 0.851437V4.04632ZM1417.75 12.6336C1423.49 18.3673 1426.34 25.2899 1426.34 33.495H1429.53C1429.53 24.4522 1426.35 16.7142 1420.01 10.3744L1417.75 12.6336ZM1426.34 33.495C1426.34 38.6947 1424.88 43.5232 1421.94 48.0138L1424.62 49.7635C1427.89 44.7678 1429.53 39.3339 1429.53 33.495H1426.34ZM1421.94 48.0198C1419.07 52.4402 1415.27 55.8743 1410.52 58.3359L1411.98 61.1737C1417.23 58.461 1421.45 54.6509 1424.62 49.7575L1421.94 48.0198ZM1409.87 60.556L1429.14 93.8012L1431.91 92.1988L1412.63 58.9536L1409.87 60.556ZM1430.52 91.4026H1408.27V94.5974H1430.52V91.4026ZM1379.77 21.8527V45.1373H1382.97V21.8527H1379.77ZM1381.37 46.7347H1396.89V43.5398H1381.37V46.7347ZM1396.89 46.7347C1400.22 46.7347 1403.06 45.3971 1405.33 42.8324L1402.94 40.7155C1401.24 42.6352 1399.25 43.5398 1396.89 43.5398V46.7347ZM1405.31 42.8575C1407.67 40.2971 1408.84 37.1412 1408.84 33.495H1405.64C1405.64 36.4029 1404.74 38.7663 1402.96 40.6904L1405.31 42.8575ZM1408.84 33.495C1408.84 29.8488 1407.67 26.6928 1405.31 24.1325L1402.96 26.2995C1404.74 28.2237 1405.64 30.587 1405.64 33.495H1408.84ZM1405.33 24.1576C1403.06 21.5928 1400.22 20.2553 1396.89 20.2553V23.4501C1399.25 23.4501 1401.24 24.3548 1402.94 26.2744L1405.33 24.1576ZM1396.89 20.2553H1381.37V23.4501H1396.89V20.2553Z" fill="white" fill-opacity="0.05"/>
</svg>
